<?xml version="1.0" encoding="utf-8"?>
<!-- Generator: Adobe Illustrator 16.0.0, SVG Export Plug-In . SVG Version: 6.00 Build 0)  -->
<!DOCTYPE svg PUBLIC "-//W3C//DTD SVG 1.1//EN" "http://www.w3.org/Graphics/SVG/1.1/DTD/svg11.dtd">
<svg version="1.1" id="Layer_1" xmlns="http://www.w3.org/2000/svg" xmlns:xlink="http://www.w3.org/1999/xlink" x="0px" y="0px"
	 width="1944.194px" height="1315.993px" viewBox="0 0 1944.194 1315.993" enable-background="new 0 0 1944.194 1315.993"
	 xml:space="preserve">
<g id="gray" opacity="0.3">
	
		<rect x="1667.614" y="511.831" transform="matrix(-0.7071 -0.7071 0.7071 -0.7071 2599.4458 2329.5078)" fill="#CCCCCC" width="229.126" height="229.126"/>
	
		<rect x="1343.583" y="511.832" transform="matrix(-0.7071 -0.7071 0.7071 -0.7071 2046.281 2100.3882)" fill="#939598" width="229.125" height="229.125"/>
	
		<rect x="1505.6" y="673.849" transform="matrix(-0.7071 -0.7071 0.7071 -0.7071 2208.2939 2491.5313)" fill="#C4C4C3" width="229.125" height="229.124"/>
	
		<rect x="1667.614" y="835.864" transform="matrix(-0.7071 -0.7071 0.7071 -0.7071 2370.3215 2882.6665)" fill="#939598" width="229.126" height="229.126"/>
	
		<rect x="1019.55" y="511.832" transform="matrix(-0.7071 -0.7071 0.7071 -0.7071 1493.123 1871.2616)" fill="#6D6E71" width="229.126" height="229.125"/>
	
		<rect x="1343.583" y="835.864" transform="matrix(-0.7071 -0.7071 0.7071 -0.7071 1817.1576 2653.5454)" fill="#6D6E71" width="229.126" height="229.126"/>
	
		<rect x="695.518" y="511.832" transform="matrix(-0.7071 -0.7071 0.7071 -0.7071 939.9674 1642.1353)" fill="#C4C4C3" width="229.126" height="229.125"/>
	
		<rect x="857.535" y="673.848" transform="matrix(-0.7071 -0.7071 0.7071 -0.7071 1101.9836 2033.2773)" fill="#939598" width="229.125" height="229.125"/>
	
		<rect x="1019.551" y="835.864" transform="matrix(-0.7071 -0.7071 0.7071 -0.7071 1263.9998 2424.4189)" fill="#C4C4C3" width="229.125" height="229.125"/>
	
		<rect x="371.486" y="511.831" transform="matrix(-0.7071 -0.7071 0.7071 -0.7071 386.8101 1413.009)" fill="#CCCCCC" width="229.125" height="229.125"/>
	
		<rect x="533.502" y="673.847" transform="matrix(-0.7071 -0.7071 0.7071 -0.7071 548.826 1804.151)" fill="#6D6E71" width="229.126" height="229.126"/>
	
		<rect x="695.519" y="835.864" transform="matrix(-0.7071 -0.7071 0.7071 -0.7071 710.8428 2195.2932)" fill="#CCCCCC" width="229.125" height="229.125"/>
	
		<rect x="47.453" y="511.831" transform="matrix(-0.7071 -0.7071 0.7071 -0.7071 -166.3483 1183.8833)" fill="#939598" width="229.125" height="229.125"/>
	
		<rect x="209.469" y="673.847" transform="matrix(-0.7071 -0.7071 0.7071 -0.7071 -4.3311 1575.0254)" fill="#C4C4C3" width="229.126" height="229.126"/>
	
		<rect x="371.486" y="835.863" transform="matrix(-0.7071 -0.7071 0.7071 -0.7071 157.6831 1966.1666)" fill="#939598" width="229.126" height="229.125"/>
	
		<rect x="47.453" y="835.863" transform="matrix(-0.7071 -0.7071 0.7071 -0.7071 -395.4739 1737.0414)" fill="#6D6E71" width="229.125" height="229.126"/>
	
		<rect x="1181.565" y="673.846" transform="matrix(-0.7071 -0.7071 0.7071 -0.7071 1655.1456 2262.3987)" fill="#CCCCCC" width="229.126" height="229.126"/>
</g>
<g id="type-and-string">
	<path fill="none" stroke="#878568" stroke-width="14" stroke-miterlimit="10" d="M967.256,586.562
		c-27.281,140.234-89.918,152.597-136.035,197.602"/>
	<path fill="none" stroke="#878568" stroke-width="14" stroke-miterlimit="10" d="M789.051,857.004
		c-6.913,24.067-20.293,44.856-38.138,63.506"/>
	<g>
		<path d="M231.897,914.102l-23.716-65.83H96.912l-22.608,65.83H10.247l129.443-329.15h25.268l130.552,329.15H231.897z
			 M152.325,684.251l-39.011,119.913h78.021L152.325,684.251z"/>
		<path d="M479.259,914.102V776.901c0-20.243-3.879-35.021-11.637-44.33c-7.758-9.31-20.43-13.964-38.013-13.964
			c-8.128,0-16.811,2.292-26.044,6.871c-9.237,4.582-16.44,10.272-21.611,17.067v171.557h-55.413V676.715h39.897l10.196,22.165
			c15.072-17.732,37.31-26.598,66.717-26.598c28.222,0,50.498,8.461,66.828,25.379c16.326,16.922,24.492,40.527,24.492,70.817
			v145.624H479.259z"/>
		<path d="M609.367,914.102V722.153h-30.366v-45.438h86.443v237.387H609.367z M637.96,584.73c8.866,0,16.437,3.141,22.719,9.42
			c6.279,6.282,9.42,13.853,9.42,22.719c0,8.866-3.141,16.44-9.42,22.719c-6.283,6.282-13.854,9.42-22.719,9.42
			c-8.866,0-16.44-3.138-22.719-9.42c-6.282-6.279-9.42-13.853-9.42-22.719c0-8.866,3.138-16.437,9.42-22.719
			C621.52,587.871,629.094,584.73,637.96,584.73z"/>
		<path d="M712.213,975.056l35.021-43.222c19.356,17.732,40.929,26.598,64.722,26.598c15.959,0,29.109-2.366,39.454-7.093
			c10.341-4.731,15.515-11.231,15.515-19.505c0-14.04-11.453-21.057-34.355-21.057c-6.207,0-15.443,0.741-27.707,2.216
			c-12.267,1.476-21.5,2.217-27.706,2.217c-38.124,0-57.186-13.666-57.186-41.005c0-7.831,3.176-15.516,9.531-23.052
			c6.352-7.536,13.742-13.077,22.165-16.624c-27.042-17.583-40.562-42.481-40.562-74.696c0-25.414,9.309-46.436,27.928-63.06
			c18.619-16.624,41.521-24.936,68.712-24.936c21.278,0,39.083,3.99,53.417,11.969l21.722-25.268l38.345,34.799l-26.376,19.284
			c9.16,13.891,13.742,30.293,13.742,49.207c0,27.041-8.239,48.652-24.714,64.833c-16.479,16.18-37.275,24.271-62.395,24.271
			c-3.99,0-9.31-0.367-15.959-1.108l-9.087-1.33c-1.036,0-4.987,1.59-11.858,4.766c-6.871,3.179-10.307,6.466-10.307,9.863
			c0,5.912,5.098,8.866,15.293,8.866c4.579,0,12.264-1.108,23.052-3.325c10.785-2.216,20.021-3.325,27.707-3.325
			c53.934,0,80.902,21.649,80.902,64.944c0,23.938-10.788,42.74-32.361,56.41c-21.576,13.666-47.582,20.503-78.021,20.503
			C774.497,1007.195,741.617,996.479,712.213,975.056z M767.626,760.055c0,14.04,3.878,25.306,11.636,33.802
			c7.758,8.499,18.21,12.745,31.364,12.745c13.15,0,23.273-4.135,30.366-12.412c7.093-8.274,10.639-19.651,10.639-34.134
			c0-11.969-3.806-22.089-11.415-30.366c-7.612-8.273-17.476-12.412-29.59-12.412c-12.71,0-23.052,3.99-31.031,11.969
			C771.615,737.225,767.626,747.498,767.626,760.055z"/>
		<path d="M1095.002,728.359c-9.901-6.5-20.762-9.752-32.583-9.752c-12.855,0-24.271,5.839-34.245,17.51
			c-9.975,11.675-14.961,25.933-14.961,42.778v135.207h-55.413V676.715h55.413v21.722c15.515-17.434,36.129-26.155,61.84-26.155
			c18.913,0,33.393,2.881,43.443,8.645L1095.002,728.359z"/>
		<path d="M1269.663,890.385c-5.025,8.277-13.781,15.038-26.266,20.281c-12.489,5.243-25.528,7.869-39.121,7.869
			c-25.566,0-45.66-6.39-60.289-19.173c-14.629-12.779-21.943-30.92-21.943-54.415c0-27.485,10.307-48.985,30.92-64.5
			c20.613-15.516,49.906-23.273,87.884-23.273c6.5,0,14.186,1.108,23.051,3.325c0-27.928-17.659-41.892-52.974-41.892
			c-20.835,0-38.273,3.474-52.31,10.417l-11.969-43c19.062-9.16,41.743-13.742,68.047-13.742c36.202,0,62.727,8.239,79.572,24.714
			c16.845,16.479,25.268,47.693,25.268,93.647v50.758c0,31.623,6.352,51.499,19.062,59.624c-4.582,7.979-9.68,12.894-15.294,14.74
			c-5.618,1.846-12.045,2.771-19.284,2.771c-7.979,0-15.148-2.958-21.5-8.866C1276.164,903.761,1271.879,897.333,1269.663,890.385z
			 M1264.343,802.391c-9.458-1.919-16.551-2.882-21.278-2.882c-43.741,0-65.608,14.334-65.608,43
			c0,21.278,12.336,31.917,37.016,31.917c33.248,0,49.871-16.624,49.871-49.871V802.391z"/>
		<path d="M1654.226,914.102V765.375c0-31.177-13.964-46.768-41.892-46.768c-8.277,0-16.257,2.438-23.938,7.314
			c-7.685,4.876-13.078,10.494-16.181,16.845v171.335h-55.413V756.73c0-11.671-3.623-20.946-10.861-27.817
			c-7.242-6.871-17.438-10.307-30.587-10.307c-6.948,0-14.518,2.587-22.719,7.757c-8.201,5.174-14.151,10.861-17.843,17.067v170.67
			h-55.413V676.715h38.124l11.304,20.835c15.367-16.845,35.243-25.268,59.624-25.268c31.474,0,55.191,8.572,71.149,25.711
			c6.944-7.831,16.624-14.075,29.037-18.729c12.412-4.654,24.825-6.982,37.237-6.982c26.449,0,47.024,7.574,61.729,22.719
			c14.702,15.148,22.055,35.945,22.055,62.395v156.707H1654.226z"/>
		<path d="M1754.855,898.808l19.727-44.108c16.548,13.154,35.242,19.727,56.078,19.727c21.572,0,32.36-7.682,32.36-23.052
			c0-9.011-3.252-16.402-9.753-22.165c-6.504-5.763-19.138-12.558-37.901-20.392c-40.933-16.991-61.397-40.784-61.397-71.372
			c0-20.537,7.83-36.534,23.495-47.987c15.661-11.449,35.686-17.178,60.067-17.178c24.676,0,47.876,5.542,69.598,16.624l-15.959,43
			c-12.118-10.341-28.963-15.516-50.536-15.516c-19.359,0-29.036,7.685-29.036,23.052c0,6.061,3.176,11.526,9.531,16.402
			c6.352,4.876,19.948,11.415,40.783,19.616s35.831,18.141,44.995,29.812c9.16,11.675,13.742,25.788,13.742,42.335
			c0,22.02-8.166,39.343-24.492,51.977c-16.329,12.634-38.532,18.951-66.605,18.951c-15.813,0-28.482-1.295-38.014-3.879
			C1782.008,912.073,1769.778,906.788,1754.855,898.808z"/>
	</g>
	<path fill="none" stroke="#878568" stroke-width="14" stroke-miterlimit="10" d="M750.913,920.511
		c-86.703,90.616-278.798,130.722-346.5,250.861"/>
	<path fill="none" stroke="#878568" stroke-width="14" stroke-miterlimit="10" d="M831.221,784.163
		c-17.29,16.873-32.258,38.333-42.169,72.841"/>
</g>
<g id="balloon">
	<circle fill="#FDEC0A" cx="972.098" cy="276.131" r="213.616"/>
	<path fill="#FED110" d="M1185.714,276.131c0,117.977-95.64,213.617-213.616,213.617c-117.977,0-213.617-95.64-213.617-213.617
		c0,0-6.977,60.171,19.786,120.783c34.702,78.59,105.848,165.959,170.403,184.146c-3.106,8.797-6.908,16.888-11.102,22.249
		c-7.421,9.482,6.184,20.2,16.902,21.438c10.718,1.237,17.627,1.649,17.627,1.649s6.908-0.412,17.627-1.649
		c10.719-1.237,24.323-11.956,16.903-21.438c-4.195-5.36-7.996-13.452-11.103-22.249c64.556-18.187,135.701-105.556,170.403-184.146
		C1192.69,336.302,1185.714,276.131,1185.714,276.131z"/>
</g>
<g id="operators">
	<g>
		<path d="M948.725,197.31v26.991H828.139V197.31H948.725z M908.574,159.174c0,5.552-1.97,10.319-5.908,14.301
			c-3.94,3.984-8.685,5.976-14.234,5.976c-5.552,0-10.296-1.991-14.234-5.976c-3.94-3.982-5.909-8.75-5.909-14.301
			c0-5.55,1.968-10.293,5.909-14.234c3.938-3.938,8.682-5.909,14.234-5.909c5.549,0,10.293,1.97,14.234,5.909
			C906.604,148.88,908.574,153.624,908.574,159.174z M908.574,265.257c0,5.551-1.97,10.318-5.908,14.301
			c-3.94,3.984-8.685,5.976-14.234,5.976c-5.552,0-10.296-1.991-14.234-5.976c-3.94-3.982-5.909-8.75-5.909-14.301
			c0-5.55,1.968-10.294,5.909-14.234c3.938-3.938,8.682-5.908,14.234-5.908c5.549,0,10.293,1.97,14.234,5.908
			C906.604,254.963,908.574,259.708,908.574,265.257z"/>
	</g>
	<g>
		<path d="M1078.862,379.918l42.163,42.297l-19.202,19.067l-42.163-42.297l-42.566,42.566l-19.067-18.933l42.566-42.566
			l-43.103-43.103l19.067-19.067l43.103,43.103l42.566-42.566l19.202,18.933L1078.862,379.918z"/>
	</g>
	<g>
		<path d="M1072.685,224.304v47.668h-26.99v-47.668h-46.729v-26.99h46.729v-46.057h26.99v46.057h46.863v26.99H1072.685z"/>
	</g>
	<g>
		<path d="M840.054,400.462v-31.555h103.411v31.555H840.054z"/>
	</g>
</g>
<g>
</g>
<g>
</g>
<g>
</g>
<g>
</g>
<g>
</g>
<g>
</g>
</svg>
